<svg width="24" height="24" viewBox="0 0 24 24" fill="none" xmlns="http://www.w3.org/2000/svg">
<path fill-rule="evenodd" clip-rule="evenodd" d="M19.9453 2.21833C20.3425 2.55048 20.3952 3.14172 20.0631 3.53893L4.90673 21.6641C4.57458 22.0613 3.98333 22.114 3.58613 21.7819C3.18893 21.4497 3.13619 20.8585 3.46833 20.4613L18.6247 2.33613C18.9568 1.93893 19.5481 1.88619 19.9453 2.21833Z" fill="black"/>
<path fill-rule="evenodd" clip-rule="evenodd" d="M8.30084 9.68751L13.8751 4.96153V7.04209L15.7501 4.7998V3.00505C15.7501 2.17986 14.7843 1.73246 14.1549 2.26612L7.22737 8.13942L4.33112 8.53436C3.71176 8.61882 3.25 9.14782 3.25 9.77291V14.2274C3.25 14.8525 3.71176 15.3815 4.33112 15.4659L6.57512 15.7719L7.96552 14.1092C7.86846 14.0695 7.76631 14.042 7.66137 14.0277L5.12501 13.6818V10.3185L7.66137 9.9726C7.89733 9.94043 8.11919 9.84152 8.30084 9.68751ZM10.3887 16.0829L9.18588 17.5213L14.1549 21.7342C14.7843 22.2678 15.7501 21.8205 15.7501 20.9953V9.67135L13.8751 11.9136V19.0388L10.3887 16.0829Z" fill="black"/>
</svg>
